<?xml version="1.0" encoding="UTF-8"?>
<svg width="16px" height="16px" viewBox="0 0 16 16" version="1.1" xmlns="http://www.w3.org/2000/svg" xmlns:xlink="http://www.w3.org/1999/xlink">
    <title>54F48624-685C-434D-80D7-4F48ED7FCD38</title>
    <g id="Style-Guide" stroke="none" stroke-width="1" fill="none" fill-rule="evenodd">
        <g id="styleguide_v01" transform="translate(-116.000000, -1506.000000)" fill="#FFFFFF" fill-rule="nonzero">
            <g id="Notifcation-Banners" transform="translate(100.000000, 1426.000000)">
                <g id="Error" transform="translate(0.000000, 64.000000)">
                    <g id="Text" transform="translate(16.000000, 15.000000)">
                        <path d="M8,1 C3.58064516,1 0,4.58064516 0,9 C0,13.4193548 3.58064516,17 8,17 C12.4193548,17 16,13.4193548 16,9 C16,4.58064516 12.4193548,1 8,1 Z M11.922568,11.0999874 C12.0741872,11.2516066 12.0741872,11.4967868 11.922568,11.6483745 L10.6451613,12.922568 C10.4935421,13.0741872 10.2483934,13.0741872 10.0967742,12.922568 L8,10.8064516 L5.9000126,12.922568 C5.7483934,13.0741872 5.50321321,13.0741872 5.3516255,12.922568 L4.07743196,11.6451613 C3.92581275,11.4935421 3.92581275,11.2483934 4.07743196,11.0967742 L6.19354839,9 L4.07743196,6.9000126 C3.92581275,6.7483934 3.92581275,6.50321321 4.07743196,6.3516255 L5.35483871,5.07418725 C5.50645791,4.92256804 5.7516066,4.92256804 5.90322581,5.07418725 L8,7.19354839 L10.0999874,5.07743196 C10.2516066,4.92581275 10.4967868,4.92581275 10.6483745,5.07743196 L11.9258128,6.35483871 C12.077432,6.50645791 12.077432,6.7516066 11.9258128,6.90322581 L9.80645161,9 L11.922568,11.0999874 Z" id="error-icon"></path>
                    </g>
                </g>
            </g>
        </g>
    </g>
</svg>