<?xml version="1.0" encoding="UTF-8"?>
<svg width="16px" height="16px" viewBox="0 0 16 16" version="1.1" xmlns="http://www.w3.org/2000/svg" xmlns:xlink="http://www.w3.org/1999/xlink">
    <title>E9775D12-382E-4E06-A766-75EC71EAD1FE</title>
    <g id="Style-Guide" stroke="none" stroke-width="1" fill="none" fill-rule="evenodd">
        <g id="styleguide_v01" transform="translate(-116.000000, -1442.000000)" fill="#FFFFFF" fill-rule="nonzero">
            <g id="Notifcation-Banners" transform="translate(100.000000, 1426.000000)">
                <g id="Text" transform="translate(16.000000, 15.000000)">
                    <path d="M16,9 C16,4.58171623 12.4182838,1 8,1 C3.58171623,1 0,4.58171623 0,9 C0,13.4182838 3.58171623,17 8,17 C12.4182838,17 16,13.4182838 16,9 Z M7.07465978,13.2359501 C6.87307838,13.4374685 6.54627646,13.4374685 6.34469506,13.2359186 L2.98985635,9.88107989 C2.78833795,9.67952999 2.78833795,9.35269657 2.98985635,9.15114667 L3.71978957,8.42124496 C3.92133947,8.21969506 4.24817288,8.21969506 4.44972278,8.42124496 L6.70967742,10.6812311 L11.5502772,5.8406313 C11.7518586,5.6390499 12.078692,5.6390499 12.2802104,5.8406313 L13.0101436,6.57053301 C13.211662,6.77208291 13.211662,7.09891633 13.0101436,7.30046623 L7.07465978,13.2359501 Z" id="tick-icon"></path>
                </g>
            </g>
        </g>
    </g>
</svg>